<?xml version="1.0" encoding="UTF-8" standalone="no"?>
<!-- Created with Inkscape (http://www.inkscape.org/) -->

<svg
   xmlns:dc="http://purl.org/dc/elements/1.1/"
   xmlns:cc="http://creativecommons.org/ns#"
   xmlns:rdf="http://www.w3.org/1999/02/22-rdf-syntax-ns#"
   xmlns:svg="http://www.w3.org/2000/svg"
   xmlns="http://www.w3.org/2000/svg"
   xmlns:sodipodi="http://sodipodi.sourceforge.net/DTD/sodipodi-0.dtd"
   xmlns:inkscape="http://www.inkscape.org/namespaces/inkscape"
   version="1.1"
   id="svg2"
   width="23.999994"
   height="23.960878"
   viewBox="0 0 23.999994 23.960878"
   sodipodi:docname="hal.svg"
   inkscape:version="0.92.5 (2060ec1f9f, 2020-04-08)">
  <metadata
     id="metadata8">
    <rdf:RDF>
      <cc:Work
         rdf:about="">
        <dc:format>image/svg+xml</dc:format>
        <dc:type
           rdf:resource="http://purl.org/dc/dcmitype/StillImage" />
        <dc:title></dc:title>
      </cc:Work>
    </rdf:RDF>
  </metadata>
  <defs
     id="defs6" />
  <sodipodi:namedview
     pagecolor="#ffffff"
     bordercolor="#666666"
     borderopacity="1"
     objecttolerance="10"
     gridtolerance="10"
     guidetolerance="10"
     inkscape:pageopacity="0"
     inkscape:pageshadow="2"
     inkscape:window-width="1528"
     inkscape:window-height="836"
     id="namedview4"
     showgrid="false"
     fit-margin-top="0"
     fit-margin-left="0"
     fit-margin-right="0"
     fit-margin-bottom="0"
     inkscape:zoom="29.840309"
     inkscape:cx="6.0181555"
     inkscape:cy="11.913416"
     inkscape:window-x="72"
     inkscape:window-y="27"
     inkscape:window-maximized="1"
     inkscape:current-layer="svg2" />
  <path
     inkscape:connector-curvature="0"
     style="fill:#000000;fill-opacity:1;stroke-width:0.03738977"
     d="m 13.253664,1.9968226 c -0.04197,3e-4 -0.06942,0.005 -0.07902,0.0145 -0.02763,0.027666 -0.04047,0.3142668 -0.039,0.8712087 0.0018,0.6882502 0.01663,0.9118252 0.08661,1.3090087 0.104408,0.592517 0.254725,1.1343005 0.454885,1.6393841 1.165676,2.9414598 3.962829,4.9751099 7.139913,5.1910429 0.461929,0.03142 1.120564,0.01067 1.171718,-0.03699 0.08094,-0.07533 -0.297568,-1.9340421 -0.437286,-2.1472751 -0.05112,-0.07801 -0.09162,-0.08643 -0.516446,-0.107355 C 19.308945,8.6453129 17.646865,7.762246 16.594856,6.3711371 15.835497,5.3669989 15.468138,4.3218901 15.401234,2.9756729 L 15.376842,2.4853728 15.115113,2.3959894 C 14.552155,2.203806 13.547454,1.9945643 13.253657,1.9967476 Z m -2.629773,0.03325 -0.193229,0.00834 C 10.1606,2.0496559 9.4421371,2.2150393 8.8990683,2.3908394 8.5349065,2.5087144 8.4410435,2.5530645 8.4410435,2.6072895 c 0,0.0375 0.077068,0.2932084 0.1712482,0.5682169 1.3879473,4.0529431 4.1768263,7.6558696 7.8114693,10.0915876 1.319977,0.884575 2.923616,1.6941 4.411993,2.227175 0.246773,0.08838 0.465503,0.156192 0.486067,0.150659 0.100784,-0.02708 0.36713,-0.848368 0.529227,-1.631784 0.08718,-0.421367 0.0937,-0.494816 0.04762,-0.536967 -0.02936,-0.02684 -0.204811,-0.104034 -0.389889,-0.171475 C 17.297516,11.770267 13.741201,8.6271589 11.73478,4.666357 11.307831,3.8235316 11.129063,3.4147564 10.835381,2.6099145 Z m 6.900969,1.5758505 c -0.07049,0.0075 -0.120027,0.085208 -0.214261,0.2406917 -0.744893,1.2290672 -0.03215,2.8723428 1.386198,3.1958763 0.300707,0.068584 0.793947,0.044333 1.110738,-0.054667 0.286301,-0.089475 0.648593,-0.2967998 0.664692,-0.3803998 C 20.495369,6.4872492 19.839884,5.615974 19.280135,5.0228904 18.919129,4.6403819 18.311437,4.11114 17.864582,3.7901233 17.686774,3.6623815 17.59535,3.5987565 17.52486,3.6059482 Z M 5.7825722,4.067815 c -0.1105649,0 -1.2996237,1.1371838 -1.5378737,1.4707672 l -0.075729,0.1060335 1.2320367,1.2399921 c 0.6776195,0.6820003 3.6853976,3.7133352 6.6839338,6.7362942 2.998535,3.022968 5.606908,5.651935 5.796438,5.842152 0.189529,0.190225 0.368191,0.345717 0.396974,0.345567 0.147373,-7.58e-4 1.566574,-1.421551 1.566574,-1.568326 0,-0.03025 -0.921953,-0.981059 -2.04877,-2.112893 C 16.669338,14.995578 13.512311,11.819185 10.780534,9.0686999 8.0487564,6.3182159 5.7996643,4.067815 5.7825722,4.067815 Z m -3.159655,4.3506519 c -0.028888,1.5e-4 -0.043342,0.0089 -0.053237,0.02392 -0.1331211,0.20275 -0.490257,1.5930761 -0.4987008,1.9415011 l -0.00489,0.202867 0.5608466,0.211192 c 1.8269329,0.688016 3.3093792,1.501974 4.7485016,2.607134 2.7607934,2.120125 4.8120904,4.935318 5.9838984,8.212311 l 0.105231,0.2943 0.229231,-0.0235 c 0.469114,-0.04808 1.864614,-0.446783 1.929152,-0.551208 0.01444,-0.02333 -0.02046,-0.179084 -0.07748,-0.346 -0.783808,-2.294389 -1.978879,-4.40524 -3.591759,-6.343998 C 11.455219,14.047785 10.088661,12.681359 9.4889049,12.182401 7.5536561,10.572409 5.3580018,9.3233669 3.1284077,8.5640669 2.8199117,8.4590079 2.686468,8.4180749 2.6229155,8.4184499 Z m -0.107788,4.6624011 c -0.1494679,2.6e-5 -0.2689529,0.0042 -0.3340979,0.01416 l -0.1810338,0.02715 0.023588,0.22595 c 0.040344,0.385983 0.2107777,1.145708 0.3541073,1.578617 l 0.1370717,0.414067 0.5234567,0.02434 c 0.5819582,0.02709 1.1160038,0.124458 1.6340498,0.298024 2.3102372,0.774001 3.9512345,2.891901 4.052336,5.230036 0.028715,0.664092 -9.727e-4,0.6075 0.3793017,0.7226 0.4113355,0.124508 0.7434792,0.201508 1.2440143,0.288317 0.508786,0.08824 0.606385,0.08234 0.639788,-0.03876 0.04074,-0.147658 0.03706,-0.919884 -0.0065,-1.367575 C 10.83455,18.990338 10.299556,17.610679 9.3897652,16.393912 8.0937096,14.660537 6.1671842,13.506402 4.0103845,13.17116 3.6815938,13.12008 2.9635633,13.08083 2.5151585,13.08089 Z m 2.4479351,3.960619 c -0.1586377,8.33e-4 -0.3184496,0.01966 -0.4767197,0.05699 -0.3768496,0.08885 -0.831571,0.340834 -0.8306811,0.460292 6.468e-4,0.08687 0.4476326,0.684733 0.8574089,1.146809 0.4795712,0.540791 1.048594,1.045025 1.7032796,1.509326 0.2056437,0.14584 0.3932028,0.265591 0.4167644,0.266107 0.062277,0.0016 0.2662073,-0.332025 0.3514054,-0.574433 C 7.2651288,19.108213 7.0803508,18.257436 6.5008645,17.68007 6.0818822,17.262628 5.5296274,17.038345 4.9630643,17.041529 Z"
     id="path831" />
</svg>
